Coordinates
version=1
nRows=27
nColumns=38
inDegrees=no

Units are S.I. units (second, meters, Newtons, ...)
If the header above contains a line with 'inDegrees', this indicates whether rotational values are in degrees (yes) or radians (no).

endheader
time	pelvis_tilt	pelvis_list	pelvis_rotation	pelvis_tx	pelvis_ty	pelvis_tz	hip_flexion_r	hip_adduction_r	hip_rotation_r	knee_angle_r	ankle_angle_r	subtalar_angle_r	mtp_angle_r	hip_flexion_l	hip_adduction_l	hip_rotation_l	knee_angle_l	ankle_angle_l	subtalar_angle_l	mtp_angle_l	lumbar_extension	lumbar_bending	lumbar_rotation	arm_flex_r	arm_add_r	arm_rot_r	elbow_flex_r	pro_sup_r	wrist_flex_r	wrist_dev_r	arm_flex_l	arm_add_l	arm_rot_l	elbow_flex_l	pro_sup_l	wrist_flex_l	wrist_dev_l
0	2.73102	1.48894	-1.02524	0.737142	-0.431666	0.947739	0.2171	-0.00948543	-0.398064	0.438744	0.135028	0	0	0.202334	-0.108165	0.0632321	1.34729	-0.0976821	0	0	-0.105921	0.0640897	-0.136505	-0.133951	-0.196008	0.218871	0.463925	1.02493	0	0	-0.0860108	-0.205861	0.248301	0.68294	0.909851	0	0
0.01	2.75318	1.49115	-1.05623	0.738667	-0.42285	0.94912	0.202963	-0.00511136	-0.388028	0.426743	0.136761	0	0	0.228801	-0.103686	0.0581337	1.35851	-0.0953635	0	0	-0.1056	0.0610707	-0.127672	-0.127763	-0.197834	0.223417	0.468139	1.01388	0	0	-0.0929424	-0.205706	0.245039	0.685415	0.905196	0	0
0.02	2.78489	1.49153	-1.09736	0.740228	-0.413659	0.95059	0.186017	-0.000581076	-0.378347	0.413992	0.138228	0	0	0.251104	-0.100449	0.0513796	1.36393	-0.0934319	0	0	-0.107746	0.0584139	-0.118459	-0.122197	-0.199685	0.225591	0.475419	1.00297	0	0	-0.100945	-0.205049	0.239157	0.689226	0.901347	0	0
0.03	2.8262	1.49108	-1.14814	0.741779	-0.404459	0.952041	0.168141	0.00296895	-0.369359	0.401945	0.139799	0	0	0.271033	-0.097209	0.0439524	1.36464	-0.0910663	0	0	-0.111132	0.0553108	-0.109275	-0.116572	-0.201353	0.227677	0.482297	0.992154	0	0	-0.108839	-0.204095	0.232097	0.692881	0.898008	0	0
0.04	2.88022	1.49056	-1.21152	0.743145	-0.395275	0.953385	0.151478	0.00406999	-0.362205	0.393396	0.14261	0	0	0.289296	-0.092722	0.0364214	1.36144	-0.0859148	0	0	-0.114878	0.0511245	-0.100258	-0.110688	-0.203076	0.229874	0.489837	0.981539	0	0	-0.116399	-0.203234	0.225635	0.695941	0.895416	0	0
0.05	2.92596	1.48713	-1.26723	0.744837	-0.386098	0.954932	0.128757	0.00892385	-0.347367	0.376328	0.142026	0	0	0.302853	-0.0909388	0.0275453	1.35357	-0.076082	0	0	-0.12172	0.0482201	-0.0904203	-0.103915	-0.200803	0.210924	0.493452	1.00667	0	0	-0.123936	-0.199802	0.20905	0.698013	0.908863	0	0
0.06	2.98549	1.48485	-1.33714	0.746296	-0.377107	0.95619	0.109929	0.00962386	-0.335955	0.365328	0.144247	0	0	0.316788	-0.0871556	0.0173692	1.34262	-0.0635568	0	0	-0.127656	0.0434005	-0.0806858	-0.0967569	-0.201622	0.209951	0.499075	1.00285	0	0	-0.130975	-0.198049	0.199591	0.700653	0.910306	0	0
0.07	3.04521	1.48176	-1.40662	0.747635	-0.368203	0.957389	0.0905738	0.00959872	-0.323909	0.35472	0.146692	0	0	0.329309	-0.0832086	0.00723686	1.32841	-0.0489344	0	0	-0.134144	0.0382881	-0.0716102	-0.0890437	-0.20227	0.210234	0.50286	1.00059	0	0	-0.137321	-0.196232	0.190568	0.702395	0.912064	0	0
0.08	3.09893	1.47858	-1.46907	0.748881	-0.359361	0.958461	0.0714812	0.00924993	-0.312678	0.344124	0.149253	0	0	0.341409	-0.0792868	-0.00217684	1.31143	-0.0331597	0	0	-0.140293	0.0332984	-0.0634887	-0.0809337	-0.202739	0.211218	0.505381	0.999116	0	0	-0.143146	-0.194303	0.181722	0.703478	0.913795	0	0
0.09	-3.13629	1.47535	-1.52449	0.749982	-0.350569	0.959432	0.0524551	0.00862294	-0.303051	0.333396	0.152031	0	0	0.352991	-0.0750955	-0.0101623	1.29156	-0.0188451	0	0	-0.146141	0.028559	-0.0565526	-0.0727753	-0.203262	0.213102	0.508733	0.99838	0	0	-0.14858	-0.192326	0.173244	0.704108	0.914796	0	0
0.1	-3.09346	1.47217	-1.57413	0.750983	-0.341873	0.960309	0.0344667	0.00755942	-0.294284	0.32414	0.155092	0	0	0.363771	-0.0713514	-0.0182488	1.26802	-0.00590193	0	0	-0.151851	0.0241238	-0.0501094	-0.0639445	-0.203757	0.216446	0.510238	0.997708	0	0	-0.153183	-0.190354	0.16644	0.703852	0.914672	0	0
0.11	-3.05532	1.46844	-1.62078	0.752039	-0.333394	0.961125	0.0171355	0.00616368	-0.284073	0.316373	0.158237	0	0	0.372417	-0.0691768	-0.0291308	1.2408	0.00594378	0	0	-0.158481	0.0197921	-0.0420276	-0.054331	-0.204498	0.220805	0.510792	0.996182	0	0	-0.156687	-0.188351	0.161529	0.702955	0.913611	0	0
0.12	-3.02073	1.4659	-1.66369	0.752915	-0.324824	0.96168	0.00250154	0.00400164	-0.276336	0.311328	0.162623	0	0	0.381348	-0.0680829	-0.0411299	1.21151	0.0164741	0	0	-0.163322	0.0157265	-0.0342381	-0.0453798	-0.205505	0.224172	0.513455	0.993039	0	0	-0.160376	-0.186459	0.158111	0.702007	0.912204	0	0
0.13	-3.08397	1.45445	-1.60318	0.753887	-0.315527	0.963548	-0.0472097	0.0229736	-0.244242	0.254967	0.143697	0	0	0.37762	-0.0786003	-0.0484017	1.17808	0.0278467	0	0	-0.178694	0.0227385	-0.0306595	-0.034451	-0.203633	0.214519	0.50993	1.01727	0	0	-0.162095	-0.183167	0.152265	0.698377	0.916871	0	0
0.14	-3.00303	1.45729	-1.69298	0.754884	-0.307442	0.963076	-0.0428858	0.00932973	-0.24714	0.277273	0.161316	0	0	0.390556	-0.0723735	-0.0646624	1.14524	0.0373858	0	0	-0.176871	0.0122441	-0.0229615	-0.0253208	-0.202814	0.215712	0.508195	1.02721	0	0	-0.168236	-0.183806	0.152902	0.702766	0.905137	0	0
0.15	-2.99997	1.45389	-1.70171	0.755677	-0.298817	0.96351	-0.0641239	0.0118939	-0.232936	0.26112	0.160923	0	0	0.39453	-0.076072	-0.0789749	1.10971	0.0476453	0	0	-0.182817	0.0113101	-0.0173219	-0.0158625	-0.203156	0.221953	0.507808	1.03139	0	0	-0.171181	-0.182292	0.152123	0.701708	0.903095	0	0
0.16	-3.00619	1.44927	-1.70098	0.756503	-0.290128	0.963985	-0.0905946	0.0164536	-0.212554	0.237196	0.156881	0	0	0.395321	-0.0812964	-0.0951327	1.07248	0.0587459	0	0	-0.190188	0.011361	-0.0118924	-0.00641369	-0.203255	0.227059	0.507432	1.03423	0	0	-0.174062	-0.180948	0.151936	0.700974	0.901939	0	0
0.17	-3.02604	1.4423	-1.68617	0.757275	-0.281193	0.964643	-0.127327	0.0244409	-0.179744	0.19826	0.144756	0	0	0.39115	-0.0884713	-0.113052	1.03165	0.0687734	0	0	-0.200068	0.0128836	-0.00685456	0.00279756	-0.20333	0.230979	0.506892	1.0362	0	0	-0.176931	-0.179724	0.15204	0.700709	0.901724	0	0
0.18	-3.09332	1.43305	-1.62207	0.757393	-0.271314	0.965552	-0.186689	0.0425282	-0.139307	0.122645	0.11731	0	0	0.385205	-0.118993	-0.161802	0.99735	0.0758311	0	0	-0.210934	0.022481	-0.00259503	0.00931874	-0.205142	0.23435	0.507445	1.0382	0	0	-0.180765	-0.176443	0.152217	0.698512	0.901866	0	0
0.19	-3.03579	1.43998	-1.68959	0.758369	-0.263238	0.964059	-0.15902	0.0262458	-0.165173	0.18229	0.152462	0	0	0.396933	-0.11611	-0.187421	0.957626	0.0824137	0	0	-0.20549	0.013673	0.00655755	0.0165728	-0.205063	0.238947	0.507366	1.0406	0	0	-0.184584	-0.175825	0.152469	0.699457	0.901272	0	0
0.2	-2.98455	1.44356	-1.74836	0.758556	-0.254884	0.963107	-0.149768	0.013721	-0.189729	0.212649	0.177421	0	0	0.403305	-0.112994	-0.212476	0.914034	0.0862835	0	0	-0.203259	0.00683234	0.0140539	0.0241721	-0.206194	0.247355	0.507929	1.03136	0	0	-0.186602	-0.174428	0.154284	0.697429	0.896862	0	0
0.21	-2.99032	1.4369	-1.74652	0.759005	-0.245837	0.963323	-0.182623	0.0168218	-0.166077	0.182	0.169438	0	0	0.394661	-0.115389	-0.23685	0.867291	0.0905937	0	0	-0.212481	0.00593496	0.018079	0.0328242	-0.20213	0.230891	0.504141	1.066	0	0	-0.18889	-0.174304	0.157653	0.69752	0.890516	0	0
0.22	-2.98376	1.43355	-1.75631	0.759056	-0.236913	0.963041	-0.204925	0.0162291	-0.156193	0.165373	0.169087	0	0	0.390436	-0.114979	-0.259888	0.821537	0.0939359	0	0	-0.217754	0.00425507	0.0209185	0.0405864	-0.201311	0.231231	0.503832	1.06913	0	0	-0.191215	-0.173316	0.159299	0.69623	0.888842	0	0
0.23	-2.97501	1.43052	-1.76802	0.758991	-0.227893	0.962646	-0.22645	0.0148741	-0.148077	0.149817	0.169296	0	0	0.385756	-0.113376	-0.283721	0.775413	0.0972359	0	0	-0.2225	0.00222914	0.0234061	0.0476597	-0.200389	0.231838	0.503176	1.07247	0	0	-0.193534	-0.172228	0.161662	0.693967	0.887258	0	0
0.24	-2.98152	1.42872	-1.77042	0.758342	-0.218687	0.962139	-0.247524	0.00864258	-0.149103	0.132545	0.17454	0	0	0.381751	-0.106013	-0.303509	0.729349	0.0957259	0	0	-0.226262	0.00318632	0.0287747	0.0550286	-0.200654	0.231601	0.503322	1.07511	0	0	-0.197067	-0.169246	0.16391	0.690927	0.885753	0	0
0.25	-2.96973	1.42673	-1.78461	0.758245	-0.209409	0.961477	-0.266875	0.00636629	-0.143896	0.119731	0.175801	0	0	0.376487	-0.104048	-0.328866	0.682409	0.0994139	0	0	-0.229332	0.000469288	0.0308832	0.0597445	-0.199399	0.230165	0.505032	1.07652	0	0	-0.199277	-0.168308	0.16601	0.68811	0.884703	0	0
0.26	-2.95662	1.42543	-1.79954	0.758001	-0.200023	0.96065	-0.284313	0.00357917	-0.14166	0.109529	0.178269	0	0	0.371407	-0.100683	-0.353824	0.635552	0.103069	0	0	-0.231253	-0.00224529	0.0325032	0.0631861	-0.198241	0.228285	0.508296	1.07678	0	0	-0.201414	-0.167367	0.168248	0.68499	0.884133	0	0
